<svg width="24" height="24" viewBox="0 0 24 24" fill="none" xmlns="http://www.w3.org/2000/svg">
<path opacity="0.971" fill-rule="evenodd" clip-rule="evenodd" d="M11.5547 2.0007C15.2267 1.9633 18.1319 3.41902 20.2704 6.36785C22.1505 9.30365 22.4979 12.4154 21.3123 15.7031C19.9554 18.8893 17.5978 20.9126 14.2396 21.7731C10.4846 22.4935 7.27214 21.4986 4.60222 18.7882C2.22378 16.0198 1.47577 12.8547 2.35818 9.29264C3.46016 5.7869 5.76431 3.48313 9.27062 2.38133C10.0263 2.18416 10.7877 2.05729 11.5547 2.0007ZM11.2341 3.68346C14.5177 3.53611 17.1023 4.79149 18.9881 7.44962C20.5231 9.95083 20.7501 12.5684 19.6693 15.3025C18.2759 18.2434 15.9584 19.9195 12.7168 20.3307C9.44677 20.489 6.87547 19.2403 5.00294 16.5846C3.64858 14.4109 3.31464 12.087 4.00114 9.61316C4.92948 6.81526 6.79284 4.9522 9.59119 4.02401C10.1354 3.86677 10.683 3.75325 11.2341 3.68346Z" fill="currentcolor"/>
<path opacity="0.962" fill-rule="evenodd" clip-rule="evenodd" d="M11.9998 6.67338C12.5389 6.67366 12.4213 6.67364 12.7927 6.67356C12.812 8.18047 12.8185 9.68743 12.812 11.1944C14.3205 11.188 15.8289 11.1944 17.3373 11.2137C17.3373 11.5 17.3373 11.5 17.3373 12C17.3373 12.3742 17.3373 12.4417 17.3373 12.798C15.8289 12.8173 14.3205 12.8237 12.812 12.8173C12.8185 14.3243 12.812 15.8312 12.7927 17.3382C12.5 17.3382 12.5439 17.3382 12 17.3382C11.6799 17.3382 11.5913 17.3382 11.2069 17.3382C11.1876 15.8312 11.1811 14.3243 11.1876 12.8173C9.67912 12.8237 8.1707 12.8173 6.66232 12.798C6.66255 12.4373 6.662 12.6125 6.66213 12.0368C6.66232 11.7113 6.66232 11.6863 6.66232 11.2137C8.1707 11.1944 9.67912 11.188 11.1876 11.1944C11.1811 9.68743 11.1876 8.18047 11.2069 6.67356C11.7677 6.67356 11.5857 6.67323 11.9998 6.67338Z" fill="currentcolor"/>
</svg>
