<svg width="25" height="25" viewBox="0 0 25 25" fill="none" xmlns="http://www.w3.org/2000/svg">
<path fill-rule="evenodd" clip-rule="evenodd" d="M23.5105 12.7682C23.5923 12.4034 23.4784 12.1186 23.1687 11.9137C21.8503 10.8232 20.5319 9.73266 19.2136 8.64219C18.5637 8.44638 18.2626 8.68242 18.3103 9.35019C18.3428 9.41528 18.3754 9.48042 18.4079 9.54551C19.3601 10.3349 20.3122 11.1243 21.2644 11.9137C14.8028 11.9299 8.34118 11.9462 1.8796 11.9625C1.53542 12.1816 1.44586 12.4827 1.61105 12.8658C1.68639 12.9575 1.77589 13.0308 1.8796 13.0855C8.34118 13.1018 14.8028 13.1181 21.2644 13.1344C20.3122 13.9238 19.3601 14.7131 18.4079 15.5025C18.1325 16.1704 18.3522 16.4878 19.0671 16.4547C19.2103 16.3926 19.3405 16.3112 19.4577 16.2105C20.6805 15.1667 21.9174 14.1414 23.1687 13.1344C23.294 13.0174 23.4079 12.8953 23.5105 12.7682Z" fill="white"/>
</svg>
