<svg width="25" height="25" viewBox="0 0 25 25" fill="none" xmlns="http://www.w3.org/2000/svg">
<path opacity="0.964" fill-rule="evenodd" clip-rule="evenodd" d="M23.5105 12.7687C23.5923 12.4039 23.4784 12.1191 23.1687 11.9142C21.8503 10.8237 20.5319 9.73315 19.2136 8.64267C18.5637 8.44687 18.2626 8.68291 18.3103 9.35068C18.3428 9.41577 18.3754 9.48091 18.4079 9.54599C19.3601 10.3354 20.3122 11.1248 21.2644 11.9142C14.8028 11.9304 8.34118 11.9467 1.8796 11.963C1.53542 12.1821 1.44586 12.4832 1.61105 12.8663C1.68639 12.958 1.77589 13.0312 1.8796 13.086C8.34118 13.1023 14.8028 13.1186 21.2644 13.1349C20.3122 13.9243 19.3601 14.7136 18.4079 15.503C18.1325 16.1709 18.3522 16.4883 19.0671 16.4552C19.2103 16.3931 19.3405 16.3117 19.4577 16.211C20.6805 15.1672 21.9174 14.1418 23.1687 13.1349C23.294 13.0179 23.4079 12.8958 23.5105 12.7687Z" fill="white"/>
</svg>
