<svg width="25" height="25" viewBox="0 0 25 25" fill="none" xmlns="http://www.w3.org/2000/svg">
<path opacity="0.964" fill-rule="evenodd" clip-rule="evenodd" d="M1.48954 12.7687C1.40768 12.4039 1.52161 12.1191 1.83133 11.9142C3.14969 10.8237 4.46805 9.73315 5.78641 8.64267C6.43631 8.44687 6.73744 8.68291 6.68973 9.35068C6.65716 9.41577 6.62464 9.48091 6.59208 9.54599C5.63993 10.3354 4.68778 11.1248 3.73563 11.9142C10.1972 11.9304 16.6588 11.9467 23.1204 11.963C23.4646 12.1821 23.5541 12.4832 23.3889 12.8663C23.3136 12.958 23.2241 13.0312 23.1204 13.086C16.6588 13.1023 10.1972 13.1186 3.73563 13.1349C4.68778 13.9243 5.63993 14.7136 6.59208 15.503C6.86752 16.1709 6.64779 16.4883 5.9329 16.4552C5.78968 16.3931 5.65951 16.3117 5.54227 16.211C4.31953 15.1672 3.08255 14.1418 1.83133 13.1349C1.70601 13.0179 1.59208 12.8958 1.48954 12.7687Z" fill="white"/>
</svg>
