<svg width="16" height="16" viewBox="0 0 16 16" fill="none" xmlns="http://www.w3.org/2000/svg">
<g clip-path="url(#clip0_0_1)">
<path opacity="0.992" fill-rule="evenodd" clip-rule="evenodd" d="M1.10938 2.35938C5.69272 2.35417 10.2761 2.35938 14.8594 2.375C14.9808 2.39811 15.0954 2.43978 15.2031 2.5C13.1189 4.59463 11.0252 6.67794 8.92188 8.75C8.29688 9.22916 7.67188 9.22916 7.04688 8.75C4.94356 6.67794 2.84982 4.59463 0.765625 2.5C0.879919 2.44305 0.994503 2.39618 1.10938 2.35938Z" fill="currentcolor"/>
<path opacity="0.988" fill-rule="evenodd" clip-rule="evenodd" d="M-0.015625 12.4844C-0.015625 9.48438 -0.015625 6.48438 -0.015625 3.48438C0.0211758 3.3695 0.0680509 3.25491 0.125 3.14062C1.75998 4.73916 3.37978 6.35372 4.98438 7.98438C3.37978 9.61503 1.75998 11.2296 0.125 12.8281C0.0680509 12.7138 0.0211758 12.5992 -0.015625 12.4844Z" fill="currentcolor"/>
<path opacity="0.988" fill-rule="evenodd" clip-rule="evenodd" d="M15.9844 3.48438C15.9844 6.48438 15.9844 9.48438 15.9844 12.4844C15.9476 12.5992 15.9007 12.7138 15.8438 12.8281C14.2088 11.2296 12.589 9.61503 10.9844 7.98438C12.589 6.35372 14.2088 4.73916 15.8438 3.14062C15.9007 3.25491 15.9476 3.3695 15.9844 3.48438Z" fill="currentcolor"/>
<path opacity="0.991" fill-rule="evenodd" clip-rule="evenodd" d="M5.60938 8.64063C5.96806 8.97316 6.33262 9.30129 6.70312 9.62501C7.70078 10.1854 8.64869 10.1125 9.54688 9.40626C9.79688 9.15626 10.0469 8.90626 10.2969 8.65626C10.3177 8.63541 10.3385 8.63541 10.3594 8.65626C11.9835 10.2491 13.5981 11.8533 15.2031 13.4688C15.0954 13.529 14.9808 13.5707 14.8594 13.5938C10.276 13.6146 5.69272 13.6146 1.10938 13.5938C0.987962 13.5707 0.873378 13.529 0.765625 13.4688C2.37692 11.8523 3.9915 10.2429 5.60938 8.64063Z" fill="currentcolor"/>
</g>
<defs>
<clipPath id="clip0_0_1">
<rect width="16" height="16" fill="currentcolor"/>
</clipPath>
</defs>
</svg>
