<svg width="16" height="16" viewBox="0 0 16 16" fill="none" xmlns="http://www.w3.org/2000/svg">
<g clip-path="url(#clip0_0_1)">
<path opacity="0.989" fill-rule="evenodd" clip-rule="evenodd" d="M7.39073 -0.015625C7.78658 -0.015625 8.18239 -0.015625 8.57823 -0.015625C10.801 0.306132 12.3895 1.48322 13.3439 3.51562C13.7955 4.64069 13.8997 5.79694 13.6564 6.98438C13.3424 8.22834 12.8632 9.40544 12.2189 10.5156C11.1979 12.2656 10.0312 13.9114 8.71886 15.4531C8.56051 15.6584 8.37823 15.8355 8.17198 15.9844C8.04698 15.9844 7.92198 15.9844 7.79698 15.9844C7.59073 15.8355 7.40845 15.6584 7.25011 15.4531C5.93776 13.9114 4.77108 12.2656 3.75011 10.5156C3.10576 9.40544 2.62659 8.22834 2.31261 6.98438C1.90816 4.70619 2.56962 2.80515 4.29698 1.28125C5.20508 0.5564 6.23633 0.124108 7.39073 -0.015625ZM7.60948 2.89062C8.88933 2.80912 9.86326 3.30912 10.5314 4.39062C11.1416 5.71441 10.9385 6.89669 9.92198 7.9375C8.8897 8.77197 7.77511 8.89697 6.57823 8.3125C5.41376 7.57159 4.9398 6.51431 5.15636 5.14062C5.51236 3.88344 6.33008 3.13344 7.60948 2.89062Z" fill="currentcolor"/>
</g>
<defs>
<clipPath id="clip0_0_1">
<rect width="16" height="16" fill="currentcolor"/>
</clipPath>
</defs>
</svg>
