<svg width="13" height="25" viewBox="0 0 13 25" fill="none" xmlns="http://www.w3.org/2000/svg">
<path opacity="0.986" fill-rule="evenodd" clip-rule="evenodd" d="M4.05528 -0.0244141C4.47847 -0.0244141 4.90161 -0.0244141 5.32481 -0.0244141C7.42471 0.374393 8.75122 1.61137 9.3043 3.68652C9.36055 6.33823 9.38496 8.99121 9.37754 11.6455C9.36939 14.1846 9.36128 16.7236 9.35313 19.2627C8.97549 20.9122 7.94199 21.7748 6.25254 21.8506C4.56309 21.7748 3.52959 20.9122 3.15196 19.2627C3.12754 14.917 3.11939 10.5713 3.12754 6.22559C3.64839 6.22559 4.16919 6.22559 4.69004 6.22559C4.66651 10.5075 4.69092 14.7881 4.76328 19.0674C5.13321 20.0865 5.84121 20.4364 6.88731 20.1172C7.32774 19.8963 7.6126 19.5464 7.7418 19.0674C7.798 16.611 7.82241 14.1533 7.81504 11.6943C7.82193 9.17065 7.79751 6.64785 7.7418 4.12598C7.42442 2.76693 6.58618 1.92871 5.22715 1.61133C3.81187 1.43612 2.72949 1.94882 1.98008 3.14941C1.81768 3.45763 1.70371 3.78314 1.63828 4.12598C1.58257 6.64785 1.55816 9.17065 1.56504 11.6943C1.5732 14.0381 1.5813 16.3818 1.58946 18.7256C1.6856 20.7576 2.65401 22.198 4.49473 23.0469C6.78989 23.7954 8.66978 23.2175 10.1344 21.3135C10.523 20.7176 10.7671 20.0665 10.8668 19.3604C10.9387 13.9412 10.9631 8.52124 10.94 3.10059C11.4609 3.10059 11.9817 3.10059 12.5025 3.10059C12.5107 8.66699 12.5025 14.2334 12.4781 19.7998C11.7887 22.7436 9.95767 24.4688 6.98496 24.9756C6.49668 24.9756 6.0084 24.9756 5.52012 24.9756C2.54741 24.4688 0.71636 22.7436 0.0269555 19.7998C-0.0211402 14.4274 -0.00488044 9.05635 0.0757836 3.68652C0.62886 1.61137 1.95537 0.374393 4.05528 -0.0244141Z" fill="white"/>
</svg>

