<svg width="24" height="24" viewBox="0 0 24 24" fill="none" xmlns="http://www.w3.org/2000/svg">
<path opacity="0.975" fill-rule="evenodd" clip-rule="evenodd" d="M5.7893 1.80469C5.84991 1.77383 5.92022 1.75821 6.00024 1.75781C7.78894 1.91013 9.57802 2.05856 11.3674 2.20312C11.3919 2.22944 11.4075 2.26069 11.4143 2.29688C10.6183 3.98223 9.81361 5.66194 9.00024 7.33594C8.8035 6.79256 8.616 6.24567 8.43774 5.69531C8.37521 5.52638 8.25802 5.47167 8.08617 5.53125C5.42799 7.19831 4.12331 9.61238 4.17211 12.7734C4.44178 15.7277 5.87147 17.9074 8.46117 19.3125C8.84058 19.4963 9.23124 19.6525 9.63305 19.7812C9.68068 19.8056 9.71189 19.8447 9.7268 19.8984C9.53878 20.6348 9.3435 21.3692 9.14086 22.1016C9.12267 22.1451 9.09141 22.1763 9.04711 22.1953C6.0256 21.2364 3.8537 19.3146 2.53149 16.4297C1.12379 12.8647 1.48317 9.48966 3.60961 6.30469C4.48857 5.12878 5.55886 4.16782 6.82055 3.42188C6.90085 3.35727 6.96338 3.27915 7.00805 3.1875C6.60811 2.71749 6.20185 2.25655 5.7893 1.80469Z" fill="currentcolor"/>
<path opacity="0.974" fill-rule="evenodd" clip-rule="evenodd" d="M14.8359 1.75781C17.8963 2.685 20.0916 4.60688 21.4219 7.52344C22.8296 11.0885 22.4702 14.4635 20.3438 17.6484C19.4648 18.8243 18.3945 19.7853 17.1328 20.5312C17.0355 20.5817 16.973 20.6598 16.9453 20.7656C17.3509 21.2339 17.7572 21.7026 18.1641 22.1719C16.32 22.0521 14.4763 21.9114 12.6328 21.75C12.5893 21.7318 12.558 21.7005 12.5391 21.6562C13.335 19.9709 14.1398 18.2912 14.9531 16.6172C15.1643 17.2195 15.3752 17.8211 15.5859 18.4219C15.6797 18.4531 15.7734 18.4531 15.8672 18.4219C18.5254 16.7548 19.83 14.3407 19.7812 11.1797C19.4165 7.70742 17.5962 5.37145 14.3203 4.17188C14.2727 4.14753 14.2415 4.10847 14.2266 4.05469C14.4226 3.28617 14.6257 2.52054 14.8359 1.75781Z" fill="currentcolor"/>
</svg>
