<svg width="24" height="24" viewBox="0 0 24 24" fill="none" xmlns="http://www.w3.org/2000/svg">
<path opacity="0.984" fill-rule="evenodd" clip-rule="evenodd" d="M11.2735 1.47645C13.7195 1.30445 15.4929 2.30445 16.5938 4.47645C16.8558 5.10655 16.9886 5.7628 16.9923 6.4452C17.7424 6.43737 18.4924 6.4452 19.2423 6.46864C20.0626 6.58616 20.6174 7.03147 20.9063 7.80458C20.9606 10.0213 20.984 12.24 20.9767 14.4608C20.984 16.6817 20.9606 18.9004 20.9063 21.1171C20.6667 21.8411 20.1745 22.2864 19.4298 22.453C14.461 22.4843 9.49229 22.4843 4.52354 22.453C3.77885 22.2864 3.28667 21.8411 3.04697 21.1171C2.99274 18.9004 2.9693 16.6817 2.97666 14.4608C2.9693 12.24 2.99274 10.0213 3.04697 7.80458C3.33597 7.03147 3.89066 6.58616 4.71104 6.46864C5.4609 6.4452 6.2109 6.43737 6.96104 6.4452C7.08127 4.10298 8.23749 2.51704 10.4298 1.68739C10.7171 1.61557 10.9983 1.54526 11.2735 1.47645ZM11.6954 3.49208C13.096 3.46155 14.1038 4.07092 14.7188 5.3202C14.8705 5.6802 14.9408 6.0552 14.9298 6.4452C12.961 6.4452 10.9923 6.4452 9.02354 6.4452C9.08157 5.14475 9.70655 4.23069 10.8985 3.70302C11.1646 3.60926 11.4302 3.53894 11.6954 3.49208ZM4.99229 8.5077C5.64854 8.5077 6.30479 8.5077 6.96104 8.5077C6.95326 8.91425 6.96104 9.32052 6.98447 9.72645C7.26985 10.4471 7.77765 10.658 8.50791 10.3593C8.71688 10.2308 8.86533 10.0512 8.95322 9.8202C8.97666 9.383 8.98444 8.94547 8.97666 8.5077C10.9767 8.5077 12.9766 8.5077 14.9767 8.5077C14.9689 8.92986 14.9767 9.35173 15.0001 9.77333C15.2747 10.4176 15.7513 10.6286 16.4298 10.4061C16.7037 10.2579 16.8834 10.0313 16.9688 9.72645C16.9923 9.32052 17.0001 8.91425 16.9923 8.5077C17.6485 8.5077 18.3048 8.5077 18.961 8.5077C18.961 12.4921 18.961 16.4765 18.961 20.4608C14.3048 20.4608 9.64852 20.4608 4.99229 20.4608C4.99229 16.4765 4.99229 12.4921 4.99229 8.5077Z" fill="currentColor"/>
</svg>
