<svg width="24" height="24" viewBox="0 0 24 24" fill="none" xmlns="http://www.w3.org/2000/svg">
<path opacity="0.984" fill-rule="evenodd" clip-rule="evenodd" d="M11.2748 1.47596C13.7207 1.30396 15.4942 2.30396 16.5951 4.47596C16.857 5.10606 16.9899 5.76231 16.9935 6.44471C17.7436 6.43689 18.4936 6.44471 19.2435 6.46815C20.0639 6.58567 20.6186 7.03098 20.9076 7.80409C20.9618 10.0208 20.9852 12.2395 20.9779 14.4603C20.9852 16.6812 20.9618 18.8999 20.9076 21.1166C20.6679 21.8406 20.1757 22.2859 19.431 22.4525C14.4623 22.4838 9.49351 22.4838 4.52476 22.4525C3.78007 22.2859 3.28789 21.8406 3.0482 21.1166C2.99396 18.8999 2.97052 16.6812 2.97788 14.4603C2.97052 12.2395 2.99396 10.0208 3.0482 7.80409C3.33719 7.03098 3.89188 6.58567 4.71226 6.46815C5.46212 6.44471 6.21212 6.43689 6.96226 6.44471C7.08249 4.10249 8.23871 2.51655 10.431 1.6869C10.7183 1.61508 10.9996 1.54477 11.2748 1.47596ZM11.6966 3.49159C13.0973 3.46106 14.1051 4.07043 14.7201 5.31971C14.8718 5.67971 14.9421 6.05471 14.931 6.44471C12.9623 6.44471 10.9935 6.44471 9.02476 6.44471C9.08279 5.14426 9.70777 4.2302 10.8998 3.70253C11.1658 3.60877 11.4314 3.53846 11.6966 3.49159ZM4.99351 8.50721C5.64976 8.50721 6.30601 8.50721 6.96226 8.50721C6.95448 8.91376 6.96226 9.32003 6.9857 9.72596C7.27107 10.4466 7.77887 10.6576 8.50913 10.3588C8.7181 10.2303 8.86655 10.0507 8.95445 9.81971C8.97788 9.38251 8.98566 8.94498 8.97788 8.50721C10.9779 8.50721 12.9779 8.50721 14.9779 8.50721C14.9701 8.92937 14.9779 9.35125 15.0013 9.77284C15.2759 10.4171 15.7525 10.6281 16.431 10.4057C16.7049 10.2574 16.8846 10.0308 16.9701 9.72596C16.9935 9.32003 17.0013 8.91376 16.9935 8.50721C17.6498 8.50721 18.306 8.50721 18.9623 8.50721C18.9623 12.4916 18.9623 16.476 18.9623 20.4603C14.306 20.4603 9.64974 20.4603 4.99351 20.4603C4.99351 16.476 4.99351 12.4916 4.99351 8.50721Z" fill="currentcolor"/>
</svg>
