<svg width="433" height="158" viewBox="0 0 433 158" fill="none" xmlns="http://www.w3.org/2000/svg">
<g filter="url(#filter0_d_2022_819508)">
<path d="M131.006 7.59961V94.4316H155.6V113.37H131.006V141.6H107.309V113.37H20.6001V96.3969L100.846 7.59961H131.006ZM47.3488 94.4316H107.309V28.1463L47.3488 94.4316Z" fill="white"/>
<path d="M408.006 7.59961V94.4316H432.6V113.37H408.006V141.6H384.309V113.37H297.6V96.3969L377.846 7.59961H408.006ZM324.349 94.4316H384.309V28.1463L324.349 94.4316Z" fill="white"/>
<path d="M227.19 141.6C212.403 141.6 199.66 138.72 188.961 132.962C178.261 127.084 170.026 118.926 164.256 108.489C158.485 97.9321 155.6 85.6356 155.6 71.5996C155.6 57.5636 158.485 45.3271 164.256 34.8901C170.026 24.3331 178.261 16.1754 188.961 10.4171C199.66 4.53877 212.403 1.59961 227.19 1.59961C241.977 1.59961 254.66 4.53877 265.239 10.4171C275.939 16.1754 284.174 24.3331 289.944 34.8901C295.715 45.3271 298.6 57.5636 298.6 71.5996C298.6 85.6356 295.715 97.9321 289.944 108.489C284.174 118.926 275.939 127.084 265.239 132.962C254.66 138.72 241.977 141.6 227.19 141.6ZM227.19 121.985C242.218 121.985 253.879 117.606 262.174 108.849C270.469 99.9715 274.617 87.5551 274.617 71.5996C274.617 55.6442 270.469 43.2877 262.174 34.5302C253.879 25.6527 242.218 21.214 227.19 21.214C212.163 21.214 200.442 25.6527 192.026 34.5302C183.731 43.2877 179.584 55.6442 179.584 71.5996C179.584 87.5551 183.731 99.9715 192.026 108.849C200.442 117.606 212.163 121.985 227.19 121.985Z" fill="white"/>
</g>
<defs>
<filter id="filter0_d_2022_819508" x="9.72748e-05" y="-0.000391006" width="432.6" height="157.2" filterUnits="userSpaceOnUse" color-interpolation-filters="sRGB">
<feFlood flood-opacity="0" result="BackgroundImageFix"/>
<feColorMatrix in="SourceAlpha" type="matrix" values="0 0 0 0 0 0 0 0 0 0 0 0 0 0 0 0 0 0 127 0" result="hardAlpha"/>
<feOffset dx="-12" dy="7"/>
<feGaussianBlur stdDeviation="4.3"/>
<feComposite in2="hardAlpha" operator="out"/>
<feColorMatrix type="matrix" values="0 0 0 0 0 0 0 0 0 0 0 0 0 0 0 0 0 0 0.25 0"/>
<feBlend mode="normal" in2="BackgroundImageFix" result="effect1_dropShadow_2022_819508"/>
<feBlend mode="normal" in="SourceGraphic" in2="effect1_dropShadow_2022_819508" result="shape"/>
</filter>
</defs>
</svg>
