<svg preserveAspectRatio="none" width="100%" height="100%" overflow="visible" style="display: block;" viewBox="0 0 177 39" fill="none" xmlns="http://www.w3.org/2000/svg">
<g id="&#208;&#161;&#208;&#187;&#208;&#190;&#208;&#185;_x0020_1">
<path id="Vector" d="M38.4528 8.92722V8.90302V8.88285L38.4488 8.85864V8.83444V8.81427L38.4449 8.79006L38.4409 8.76586V8.74569L38.4369 8.72149L38.433 8.70132L38.429 8.67711L38.425 8.65694L38.421 8.63677V8.63274L38.4131 8.61257L38.4091 8.5924L38.4012 8.56819L38.3972 8.54802L38.3893 8.52785L38.3813 8.50768L38.3734 8.48348L38.3654 8.46331L38.3575 8.44314L38.3495 8.42297L38.3416 8.4028L38.3336 8.38263L38.3217 8.36246L38.3138 8.34229L38.3019 8.32212L38.2939 8.30599L38.282 8.28582L38.2701 8.26565L38.2582 8.24548L38.2502 8.22934L38.2343 8.20917L38.2105 8.17286L38.1986 8.15673L38.1867 8.13656L38.1708 8.12042L38.1589 8.10429C38.0437 7.96713 37.9047 7.85418 37.7418 7.7735L27.7957 2.86413L22.2467 0.129088C22.1911 0.10085 22.1315 0.0766458 22.0719 0.0564759H22.064L22.0561 0.0524419L22.0203 0.0443739L22.0124 0.0403399H22.0044L21.9925 0.0363059L21.9846 0.0322719H21.9766L21.9687 0.0282379H21.9607H21.9488L21.9409 0.0242039H21.9329L21.925 0.0201699H21.917L21.9091 0.016136H21.9051H21.8972H21.8892L21.8813 0.012102H21.8733H21.8614L21.8296 0.00806798L21.8177 0.00403399H21.8098H21.8018H21.7939H21.7859H21.774H21.7661V0H21.7581H21.7502H21.7224H21.7145H21.7025H21.6946H21.6866H21.6787H21.6708H21.6588H21.6509H21.643H21.635H21.6231V0.00403399H21.6151H21.6072H21.5993H21.5913H21.5715L21.5635 0.00806798H21.5556H21.5437L21.5278 0.012102H21.5198L21.5 0.016136H21.4841L21.4682 0.0201699L21.4483 0.0242039L21.4324 0.0282379L21.4126 0.0322719L21.3967 0.0363059L21.3808 0.0403399L21.3729 0.0443739H21.3609L21.353 0.0484079H21.345L21.3371 0.0524419L21.3292 0.0564759H21.3212L21.3093 0.0605099L21.3014 0.0645438H21.2934L21.2855 0.0685778L21.2775 0.0726118L21.2696 0.0766458H21.2616L21.2418 0.0847138L21.2338 0.0887478L21.2259 0.0927818L21.2179 0.0968158L21.2021 0.10085L21.1941 0.104884L21.1862 0.108918C21.1703 0.116986 21.1584 0.12102 21.1425 0.129088L17.3968 1.97666L33.2692 15.4744L34.2067 15.3776L36.8759 16.3094L37.2453 16.9791V18.2619L38.4449 18.2296L38.4528 8.92722ZM15.9152 12.7151L16.2091 8.1769L14.1476 10.4924L11.9074 9.75419L14.1 12.2149L15.9152 12.7151ZM25.4045 13.5058L23.8634 16.4345L25.8534 16.4788L25.4045 13.5058ZM19.2279 12.7474L21.8018 9.46777L21.2457 13.4776L19.2279 12.7474ZM21.8018 9.46777L18.5447 10.7748L16.2091 8.1769L18.2548 11.8599L19.2279 12.7474V12.7514L17.5954 19.9804L16.8407 19.5124L18.2548 11.8882L15.9152 12.7151L15.7881 19.1655L14.9063 18.9073L14.1 12.2149L12.7058 13.2718L11.4387 12.8281L11.9074 9.75419L10.537 12.5134L8.55891 11.6461L7.06938 16.7088L8.48344 16.3336L9.42085 17.685L7.29579 17.0476L6.29085 16.0795L7.32757 14.5829L4.97212 14.0343L6.25908 16.0916L5.09128 16.5555L5.0317 16.5394L4.97212 14.0343L4.32467 16.612L0.0705696 19.9925C0.0348209 20.0167 0.0109884 20.053 0.00304423 20.0933C-0.00489993 20.1336 0.00304423 20.174 0.0229046 20.2103L1.35355 22.0417L19.498 24.9139L18.5169 23.6069L21.2616 23.9901L23.772 28.1129C23.9825 28.4437 24.1891 28.6413 24.3877 28.7381C24.6737 28.8753 24.9239 28.8269 25.1463 28.6575C25.3132 28.5324 25.4482 28.3347 25.5594 28.1088C25.762 27.6812 25.8851 27.1044 25.9368 26.7292L27.3111 26.3621C27.1443 28.3388 26.6597 30.0613 25.2695 30.9084C24.912 31.0375 23.772 31.3965 22.6042 31.1626L5.8142 27.5723C5.41699 27.4916 5.18264 27.3303 4.94034 27.06V30.3195C4.94034 30.3437 4.94034 30.3679 4.94034 30.388V30.4122C4.94432 30.4284 4.94432 30.4445 4.94432 30.4566L4.94829 30.4808L4.95226 30.505L4.95623 30.5252L4.9602 30.5494L4.96418 30.5696L4.96815 30.5938L4.97212 30.6139L4.98006 30.6382L4.98404 30.6583L4.99198 30.6825L4.99595 30.7027L5.0039 30.7229L5.01184 30.7471L5.01979 30.7672L5.02773 30.7874L5.03567 30.8076L5.04362 30.8278L5.05156 30.8479L5.05951 30.8681L5.07142 30.8883L5.07937 30.9084L5.09128 30.9286L5.1032 30.9488L5.11114 30.9689L5.12306 30.9891L5.13498 31.0052L5.14689 31.0254L5.15881 31.0456L5.1747 31.0617L5.18661 31.0819L5.19853 31.098L5.21442 31.1182L5.22633 31.1343L5.25414 31.1666C5.26605 31.1787 5.274 31.1908 5.28592 31.2029C5.29386 31.211 5.30578 31.2231 5.31769 31.2352C5.41699 31.332 5.53616 31.4167 5.66724 31.4813L14.2231 35.5475L21.1623 38.8473C21.5 39.0087 21.8892 39.0087 22.2308 38.8473L31.0052 34.6762L37.7259 31.4813C37.7656 31.4611 37.8054 31.4369 37.8451 31.4127L37.8848 31.3885L37.9206 31.3643L37.9404 31.3522C37.9523 31.3401 37.9642 31.332 37.9762 31.3239C38.0119 31.2957 38.0437 31.2634 38.0755 31.2352L38.1072 31.2029L38.135 31.1666C38.1509 31.1505 38.1629 31.1343 38.1787 31.1182L38.1907 31.098L38.2065 31.0819L38.2185 31.0617L38.2304 31.0456L38.2423 31.0254L38.2542 31.0052L38.2661 30.9891L38.278 30.9689L38.29 30.9488L38.2979 30.9286H38.3019L38.3098 30.9084L38.3217 30.8883L38.3297 30.8681L38.3376 30.8479L38.3495 30.8278L38.3575 30.8076L38.3654 30.7874L38.3734 30.7672L38.3813 30.7471L38.3893 30.7229L38.4012 30.6825L38.4051 30.6583H38.4091C38.4131 30.6382 38.4171 30.6139 38.425 30.5938C38.425 30.5776 38.429 30.5655 38.433 30.5494L38.4369 25.2689C38.2582 26.3904 37.9364 27.1488 37.5829 27.1568C37.3605 27.1609 37.1619 26.8664 37.007 26.3742L36.999 26.346L36.9951 26.342L36.9911 26.3218V26.3177L36.9752 26.2653L36.9673 26.2411L36.9633 26.2371L36.9553 26.2048L36.9434 26.1483L36.9394 26.1362L36.9355 26.116C36.7647 25.4383 36.6654 24.4863 36.6773 23.4294C36.7051 21.364 37.1539 19.6778 37.6822 19.6657C38.0874 19.6576 38.4171 20.6298 38.5402 22.0094L38.5203 18.6209L38.9295 18.6169L38.8262 22.6226L38.5879 22.8122C38.5879 22.9171 38.5918 23.022 38.5918 23.1269L38.8699 22.8889C38.9811 22.7678 39.0407 22.6105 39.0407 22.4532L39.1241 18.5039C39.1241 18.4434 39.0725 18.395 39.0089 18.395L37.0387 18.4474V17.0355L36.7329 16.4788L34.151 15.6035L33.4957 15.668L33.869 15.9907H33.873V16.4022L32.9316 16.4788L31.8035 15.8415L30.9694 15.9222L31.4858 16.1844C31.6605 16.1642 31.8711 16.144 31.8711 16.144V16.499L31.2395 16.5636L30.2902 16.1319L30.2822 17.8383L27.8473 16.1682C27.7679 16.1158 27.6766 16.0835 27.5812 16.0795L26.1989 15.9867L26.3141 16.5313L21.8972 20.5048L23.8634 16.4345L22.4453 14.7967L19.784 20.6419L18.6758 20.5572L18.6242 20.5491L21.2537 13.4776L23.3311 12.9531L22.4453 14.7967L25.4045 13.5058L23.3589 12.9209L21.8018 9.46777ZM8.53111 16.3014L8.55891 11.6461L10.8826 15.4905L12.7058 13.2718L13.806 18.6693L12.3721 18.2256L10.9382 15.4905L8.53111 16.3014ZM29.4124 29.9564L29.3965 29.908V29.904L29.3806 29.8475L29.3766 29.8435L29.3607 29.795L29.3567 29.7829V29.7789L29.3409 29.7224L29.3369 29.7144L29.3289 29.6861L29.317 29.6498L29.313 29.6337L29.2972 29.5853V29.5772L29.2813 29.5207L29.2773 29.5167L29.2654 29.4643L29.2614 29.4481C28.9794 28.4033 28.8285 27.0882 28.8682 25.6562C28.9397 22.9373 29.6626 20.6177 30.6119 19.7585L28.1333 19.7908C28.185 19.5971 28.4551 19.3995 28.4551 19.3995L31.3984 19.3753C31.5215 19.3833 31.6447 19.4237 31.7638 19.4801C32.876 19.94 33.6625 22.4774 33.583 25.5674L33.5791 25.6763C33.9763 25.6804 34.6158 25.6925 34.6158 25.6844V16.7249L34.2027 15.902L36.5859 16.7128L36.7806 17.1485V18.7217L38.3495 18.6814V19.0525L36.8362 19.1574C36.5939 19.1816 36.4747 19.4559 36.4509 19.5891C36.3992 19.8916 35.9305 25.7974 35.9305 25.7974L34.7389 26.2008L33.5513 26.2209C33.5393 26.4146 33.5235 26.6082 33.5036 26.7978V26.8139L33.4996 26.8301L33.4957 26.8986L33.4917 26.9148V26.9309L33.4877 26.9511V26.9672L33.4758 27.0519V27.064V27.0681L33.4718 27.0842V27.1003L33.4678 27.1165L33.4639 27.1528V27.1689L33.4599 27.1851V27.1931L33.4559 27.2012V27.2173L33.452 27.2375V27.2536L33.448 27.2698V27.2859L33.444 27.302V27.3182C33.0865 29.904 32.1332 31.804 31.0608 31.8241C30.3935 31.8362 29.8135 31.1182 29.4124 29.9564ZM37.7656 25.4867C37.5194 25.4908 37.3367 24.567 37.3486 23.4173C37.3645 22.2676 37.575 21.3317 37.8213 21.3277C38.0635 21.3196 38.2502 22.2475 38.2343 23.3971C38.2224 24.5468 38.0119 25.4827 37.7656 25.4867ZM31.5255 29.0568C30.9257 29.0689 30.4769 27.532 30.5245 25.6239C30.5762 23.7199 31.1045 22.1668 31.7082 22.1547C32.312 22.1426 32.7608 23.6795 32.7092 25.5836C32.6615 27.4916 32.1293 29.0447 31.5255 29.0568ZM16.2211 2.55755L14.5488 3.38452L32.2087 15.5873L32.9554 15.5107L16.2211 2.55755ZM11.9789 4.65119L10.2312 5.51446L15.6967 8.26161L16.2091 7.69685L17.5636 9.1975L19.3352 10.085L20.6499 9.54442L11.9789 4.65119ZM9.25403 5.99451L5.64737 7.7735C5.4726 7.86225 5.32166 7.9873 5.20647 8.13656L5.19456 8.15673L5.17867 8.17286C5.15484 8.20917 5.131 8.24548 5.10717 8.28582L5.09923 8.30599C5.07539 8.34229 5.05553 8.38263 5.03965 8.42297L5.02376 8.46331C5.01581 8.48348 5.00787 8.50768 4.99993 8.52785L4.98801 8.56819C4.95623 8.68518 4.94034 8.80217 4.94034 8.92722V13.7236L7.41098 14.236L8.36031 11.1903L10.4377 11.9366L11.7723 9.40323L14.0324 10.089L15.2201 8.78603L9.25403 5.99451ZM22.7671 10.7385L23.4066 12.106L30.6358 15.7568L31.4937 15.664L22.7671 10.7385ZM25.9368 14.1674L26.2267 15.7003L27.6368 15.8374C27.7401 15.8455 27.8672 15.8576 27.9546 15.9181L30.0558 17.3986L30.0638 16.0311L25.9368 14.1674ZM4.94034 26.4872V26.4952L4.98404 26.5517C5.01184 26.584 5.03965 26.6163 5.07142 26.6485L5.29783 26.9269C5.50835 27.0802 5.74668 27.1972 6.00486 27.2496L8.07829 27.6812L4.36439 23.022L1.7309 22.5823L4.94034 26.4872ZM22.8107 29.9443L23.4463 30.025L23.9547 30.7874C23.6727 30.8116 23.061 30.7955 22.7829 30.735L19.7602 30.1097L15.8556 24.9422L19.7324 25.4787L20.4632 25.5715L20.9756 26.3339L20.3322 26.2532L20.8128 26.9672L21.4523 27.0479L21.9647 27.8103L21.3252 27.7296L21.8098 28.4477L22.4453 28.5324L22.9537 29.2948L22.3222 29.2142L22.8068 29.9322L22.8107 29.9443ZM8.68999 27.8103L11.4665 28.3872L7.76449 23.5908L4.9602 23.1228L8.68999 27.8103ZM12.1417 28.5243L15.0374 29.1254L11.2877 24.1797L8.42386 23.6997L12.1417 28.5243ZM15.7007 29.2666L19.0929 29.9685L15.2002 24.8332L11.9392 24.2887L15.7007 29.2666ZM21.8018 23.5141L21.7145 23.3608C21.5119 23.3528 21.3887 23.3245 21.3808 23.3205L18.227 22.8526L16.8566 21.0534C16.7613 20.9364 16.6342 20.8477 16.4912 20.8033L4.67421 17.4551L0.590913 20.2103L0.372448 20.1619L4.62258 16.8338L16.801 20.2587C16.8923 20.2829 16.9718 20.3273 17.0433 20.3878L17.7344 21.005L20.9518 21.368C21.639 21.4407 22.2149 21.1865 22.7869 20.7831L27.1522 16.8782L27.4343 16.8822L27.4025 20.5612L27.3906 22.2757L27.3628 25.4988L27.3588 25.6037L25.2655 26.1685L25.2576 26.4388C25.2496 26.6687 25.1424 27.3343 24.9199 27.7942C24.8603 27.9273 24.7928 28.0322 24.7253 28.0846C24.7134 28.0927 24.7015 28.0967 24.6895 28.0887C24.6061 28.0524 24.5029 27.9394 24.3718 27.7296L21.8018 23.5141ZM35.4023 18.4999V16.8661L36.0418 17.0436V18.512L35.4023 18.4999ZM33.0984 18.2982V17.2251L34.02 17.1687V18.2659L33.0984 18.2982ZM32.3874 18.3224L31.1084 18.3627L31.1124 16.8419L32.3874 17.2453V18.3224ZM28.1055 18.4676L28.0896 17.1445L29.9009 18.5039L28.1055 18.4676ZM33.2017 15.7003L32.4748 15.7729L32.9276 16.0835L33.6108 16.0149L33.2017 15.7003Z" fill="var(--fill-0, white)"/>
<path id="Vector_2" d="M49.4434 27.657V14.4094H57.3042V27.657H55.1553V16.1602H51.5963V27.657H49.4434ZM59.7351 17.8665H61.5742V19.4801C62.0707 18.3022 62.8651 17.7092 63.9455 17.7092C64.9147 17.7092 65.6972 18.1368 66.293 19.0001C66.8888 19.8674 67.1867 21.0937 67.1867 22.6872C67.1867 24.1192 66.9127 25.3335 66.3764 26.3339C65.8362 27.3343 64.9981 27.8345 63.8621 27.8345C62.9525 27.8345 62.2415 27.4392 61.7291 26.6445V30.973H59.7351V17.8665ZM61.7291 23.5666C61.7291 24.1918 61.7768 24.6799 61.8681 25.0309C61.9595 25.3819 62.1462 25.6844 62.4321 25.9305C62.7102 26.1806 63.0319 26.3056 63.3894 26.3056C64.5135 26.3056 65.0736 25.0995 65.0736 22.6831C65.0736 20.3434 64.5254 19.1776 63.4291 19.1776C62.9446 19.1776 62.5394 19.4156 62.2137 19.8956C61.8919 20.3716 61.7291 21.0534 61.7291 21.9368V23.5666ZM76.1795 22.6589C76.1795 26.1524 74.9085 27.895 72.3624 27.895C71.1946 27.895 70.2691 27.4755 69.5978 26.6324C68.9265 25.7853 68.5929 24.4944 68.5929 22.7557C68.5929 19.3349 69.8639 17.6285 72.41 17.6285C73.5699 17.6285 74.4834 18.044 75.1627 18.8791C75.8419 19.7141 76.1795 20.9727 76.1795 22.6589ZM74.0664 22.7598C74.0664 21.3842 73.9194 20.4402 73.6136 19.9279C73.3117 19.4156 72.9026 19.1574 72.3862 19.1574C71.2661 19.1574 70.706 20.3595 70.706 22.7598C70.706 23.9901 70.8331 24.8978 71.0953 25.4867C71.3574 26.0717 71.7864 26.3662 72.3862 26.3662C72.978 26.3662 73.407 26.0676 73.6692 25.4706C73.9353 24.8736 74.0664 23.97 74.0664 22.7598ZM78.0186 27.657V17.8665H80.9381L82.936 26.0757L84.8983 17.8665H87.6191V27.657H85.7999V19.6617L83.7265 27.657H81.669L79.6392 19.6617V27.657H78.0186ZM88.485 14.4094H96.4213V16.2771H93.5296V27.657H91.3767V16.2771H88.485V14.4094ZM103.595 23.0502H98.1293C98.1293 24.3734 98.308 25.2608 98.6655 25.7005C99.019 26.1443 99.4639 26.3662 100 26.3662C100.898 26.3662 101.462 25.757 101.7 24.5388L103.519 24.7808C103.039 26.8543 101.847 27.895 99.9445 27.895C98.7767 27.895 97.8433 27.4715 97.1482 26.6243C96.457 25.7772 96.1075 24.5388 96.1075 22.901C96.1075 21.2228 96.457 19.9239 97.1561 19.0041C97.8552 18.0884 98.7966 17.6285 99.9644 17.6285C100.787 17.6285 101.478 17.8585 102.038 18.3183C102.598 18.7742 102.991 19.3753 103.225 20.1215C103.452 20.8638 103.575 21.84 103.595 23.0502ZM101.561 21.6787C101.561 19.9602 101.005 19.0969 99.8929 19.0969C98.8562 19.0969 98.2802 19.9602 98.1809 21.6787H101.561ZM104.044 17.8665H106.248L107.654 20.6944L109.112 17.8665H110.983L108.552 22.2999L111.396 27.657H109.18L107.432 24.2039L105.637 27.657H103.73L106.526 22.5581L104.044 17.8665ZM112.31 14.4094H114.462V20.771L118.423 14.4094H120.679L117.314 19.2744L121.247 27.657H118.907L115.996 21.0816L114.462 23.3124V27.657H112.31V14.4094ZM129.231 22.6589C129.231 26.1524 127.96 27.895 125.413 27.895C124.242 27.895 123.32 27.4755 122.649 26.6324C121.978 25.7853 121.644 24.4944 121.644 22.7557C121.644 19.3349 122.915 17.6285 125.461 17.6285C126.621 17.6285 127.535 18.044 128.214 18.8791C128.889 19.7141 129.231 20.9727 129.231 22.6589ZM127.118 22.7598C127.118 21.3842 126.967 20.4402 126.665 19.9279C126.363 19.4156 125.95 19.1574 125.437 19.1574C124.317 19.1574 123.753 20.3595 123.753 22.7598C123.753 23.9901 123.884 24.8978 124.146 25.4867C124.405 26.0717 124.838 26.3662 125.437 26.3662C126.029 26.3662 126.458 26.0676 126.72 25.4706C126.986 24.8736 127.118 23.97 127.118 22.7598ZM131.066 27.657V17.8665H133.989L135.987 26.0757L137.949 17.8665H140.67V27.657H138.851V19.6617L136.778 27.657H134.716L132.69 19.6617V27.657H131.066ZM143.022 27.657V17.8665H149.552V27.657H147.558V19.2381H145.016V27.657H143.022ZM153.691 20.6258L151.776 20.3837C151.903 19.5164 152.297 18.8347 152.96 18.3547C153.627 17.8706 154.441 17.6285 155.407 17.6285C156.273 17.6285 156.964 17.802 157.48 18.157C158 18.5079 158.326 18.9275 158.457 19.4116C158.592 19.8997 158.656 20.6298 158.656 21.6141V24.9502C158.656 26.3016 158.715 27.2012 158.831 27.657H156.94C156.857 27.302 156.817 26.7575 156.817 26.0273C156.213 27.2738 155.311 27.895 154.116 27.895C153.301 27.895 152.65 27.6409 152.158 27.1326C151.665 26.6284 151.423 25.9345 151.423 25.0632C151.423 23.9942 151.78 23.1511 152.499 22.5298C153.222 21.9126 154.469 21.598 156.245 21.598C156.332 21.598 156.475 21.602 156.662 21.6101V21.2107C156.662 20.5128 156.559 19.9884 156.352 19.6294C156.149 19.2784 155.78 19.0969 155.248 19.0969C154.382 19.0969 153.862 19.6092 153.691 20.6258ZM156.662 22.8889C156.408 22.8647 156.217 22.8526 156.082 22.8526C154.358 22.8526 153.496 23.5343 153.496 24.9099C153.496 25.9063 153.921 26.4065 154.779 26.4065C155.28 26.4065 155.721 26.1322 156.094 25.5957C156.475 25.0511 156.662 24.3088 156.662 23.3649V22.8889ZM160.884 27.657V17.8665H162.882V21.7593H165.754V17.8665H167.748V27.657H165.754V23.2882H162.882V27.657H160.884ZM172.093 26.6566V27.657H170.099V17.8665H172.093V22.1143C172.093 23.1511 172.07 23.8288 172.026 24.1394C172.308 23.5222 172.646 22.8969 173.043 22.2596L175.005 19.1372V17.8665H176.999V27.657H175.005V23.6715C175.005 22.5984 175.029 21.9288 175.076 21.6545C174.798 22.3523 174.425 23.0623 173.952 23.7925L172.093 26.6566Z" fill="var(--fill-0, white)"/>
</g>
</svg>
