<svg width="76" height="76" viewBox="0 0 76 76" fill="none" xmlns="http://www.w3.org/2000/svg">
<g clip-path="url(#clip0_416_3593)">
<path fill-rule="evenodd" clip-rule="evenodd" d="M57.2353 33.6032C58.6021 34.1518 59.9801 34.713 61.3586 35.2499C61.5293 35.3109 61.7609 35.3109 61.9194 35.2499C62.5294 35.0178 63.1272 34.774 63.7246 34.5302V28.9957H53.8887L43.0015 41.5802L33.1706 31.0295L28.4572 25.9607C28.0198 25.4911 27.2752 25.4906 26.8368 25.9597L23.5678 29.4638L22.1088 31.0271L8.94937 45.1535V4.79785H0.862608L0.903568 62.1261H2.00121V68.2477L0 68.7032V71.1925H9.81634V68.7081L7.81075 68.2477V62.1261H8.91326L8.94935 57.0207L10.2503 55.6202L12.4958 53.2036L26.8368 37.8273C27.2747 37.3578 28.0193 37.3582 28.4572 37.8278L37.684 47.7271L19.1148 69.3736C18.4985 70.0919 19.009 71.2022 19.955 71.2022H63.7236L63.7246 67.2184C63.1755 66.9867 62.6264 66.7795 62.0905 66.5474C61.7853 66.4011 61.5293 66.4255 61.2362 66.5718C60.1781 67.0496 59.1375 67.5285 58.0525 67.9654C57.6493 67.9108 57.1758 67.8459 56.7735 67.7913C55.8026 67.035 54.9015 66.1953 54.0769 65.2791C53.4425 64.5959 52.8569 63.864 52.3205 63.096C52.8686 61.7789 53.4303 60.4609 53.9672 59.1316C54.016 59.0341 54.016 58.8878 53.9789 58.7898C53.6376 57.9603 53.2962 57.1431 52.9305 56.3385C52.8935 56.2283 52.7716 56.1191 52.6497 56.0703L48.8077 54.5333C48.6 53.3503 48.4902 52.1181 48.4902 50.8737C48.4902 49.8005 48.5761 48.7521 48.7345 47.7271C48.7467 47.5803 48.7711 47.4467 48.795 47.3004C50.076 46.764 51.3692 46.2271 52.6497 45.6903C52.7594 45.6537 52.8813 45.5435 52.9305 45.4343C53.2719 44.6414 53.6132 43.8485 53.9306 43.0435C53.9789 42.9211 53.9789 42.7509 53.9306 42.629C53.6742 42.0312 53.3938 41.4455 53.1373 40.8477C52.8325 40.1523 52.5399 39.4575 52.2347 38.7621C53.601 36.7741 55.2965 35.03 57.2353 33.6032Z" fill="#CFCFCF"/>
<path fill-rule="evenodd" clip-rule="evenodd" d="M69.9098 44.7793C66.5461 44.7793 63.8193 47.5061 63.8193 50.8702C63.8193 54.2333 66.5461 56.9601 69.9098 56.9601C73.2734 56.9601 76.0002 54.2333 76.0002 50.8702C76.0002 47.5061 73.2734 44.7793 69.9098 44.7793Z" fill="#CFCFCF"/>
</g>
<defs>
<clipPath id="clip0_416_3593">
<rect width="76" height="76" fill="white"/>
</clipPath>
</defs>
</svg>
